<svg width="24" height="24" viewBox="0 0 24 24" fill="none" xmlns="http://www.w3.org/2000/svg">
  <path d="M11.99 18.54L4.62 12.81C3.59 12.05 3 10.82 3 9.5C3 6.47 5.47 4 8.5 4C10.07 4 11.64 4.8 12.5 5.89L12 6.5L11.5 5.89C10.64 4.8 9.07 4 7.5 4C4.47 4 2 6.47 2 9.5C2 10.82 2.59 12.05 3.62 12.81L10.99 18.54C11.59 19.01 12.39 19.01 12.99 18.54L20.36 12.81C21.4 12.05 22 10.82 22 9.5C22 6.47 19.53 4 16.5 4C14.93 4 13.36 4.8 12.5 5.89L12 6.5L11.5 5.89C10.64 4.8 9.07 4 7.5 4" fill="#38761D"/>
  <path d="M12 3L19 9V21H5V9L12 3Z" fill="#38761D"/>
</svg> 